<?xml version="1.0" encoding="UTF-8"?>
<svg xmlns="http://www.w3.org/2000/svg" xmlns:xlink="http://www.w3.org/1999/xlink" viewBox="0 0 1500 1500">
  <defs>
    <linearGradient id="linear-gradient" x1="526.09" y1="417.09" x2="1011.41" y2="995.47" gradientUnits="userSpaceOnUse">
      <stop offset="0" stop-color="#8dff6a"/>
      <stop offset=".4" stop-color="#67fe31"/>
      <stop offset=".63" stop-color="#6cc202"/>
      <stop offset=".76" stop-color="#30ad05"/>
      <stop offset="1" stop-color="#028906"/>
    </linearGradient>
  </defs>
  <g id="Layer_1">
    <g>
      <path d="M486.14,1185.69c-6.95,4.58-16.09,6.86-27.42,6.86-12.95,0-24.14-5.09-33.57-15.28-9.43-10.19-14.15-22.42-14.15-36.71s4.73-26.48,14.19-36.58c9.46-10.1,20.64-15.15,33.53-15.15,10.05.11,18.21,1.94,24.49,5.48,6.28,3.55,11.65,9.31,16.12,17.29h12.89c-1.51-4.24-3.49-8.19-5.94-11.84-2.46-3.66-5.73-7.31-9.84-10.97-4.1-3.65-9.39-6.57-15.86-8.75-6.47-2.18-13.76-3.27-21.85-3.27-16.69,0-30.95,6.24-42.78,18.71-11.83,12.47-17.75,27.5-17.75,45.08s5.92,32.77,17.75,45.25c11.83,12.47,26.09,18.71,42.78,18.71,8.71,0,16.62-1.37,23.73-4.1,7.11-2.73,12.77-6.17,16.95-10.3s7.48-8.11,9.88-11.93c2.4-3.82,3.93-7.33,4.6-10.5h-12.81c-3.01,7.42-8,13.42-14.94,18Z"/>
      <path d="M590.65,1134.04c-5.97-9.26-15.24-13.89-27.79-13.89-10.49,0-19.49,4.06-27,12.18-7.51,8.12-11.26,17.96-11.26,29.51s3.75,21.25,11.26,29.43c7.51,8.18,16.51,12.27,27,12.27,12.45,0,21.71-4.63,27.79-13.9v11.64h12.81v-79.19h-12.81v11.97ZM582.65,1183.93c-5.33,5.02-11.93,7.54-19.8,7.54s-13.93-2.89-18.5-8.66c-4.58-5.78-6.86-12.77-6.86-20.97s2.29-15.19,6.86-20.97c4.58-5.78,10.74-8.66,18.5-8.66s14.47,2.48,19.8,7.45c5.33,4.97,7.99,12.36,7.99,22.18s-2.67,17.08-7.99,22.1Z"/>
      <path d="M650.74,1119.14c-9.71,0-17.36,3.1-22.94,9.29v-6.36h-12.89v79.19h12.89v-47.3c.22-6.87,2.39-12.39,6.49-16.58,4.1-4.18,9.59-6.28,16.45-6.28,5.8.22,10.51,2.34,14.11,6.36,3.6,4.02,5.4,9.29,5.4,15.82v47.97h12.89v-49.06c-.11-10.27-3.08-18.35-8.92-24.24-5.83-5.89-13.66-8.83-23.48-8.83Z"/>
      <path d="M730.42,1119.14c-9.71,0-17.36,3.1-22.94,9.29v-6.36h-12.89v79.19h12.89v-47.3c.22-6.87,2.39-12.39,6.49-16.58,4.1-4.18,9.59-6.28,16.45-6.28,5.8.22,10.51,2.34,14.11,6.36,3.6,4.02,5.4,9.29,5.4,15.82v47.97h12.89v-49.06c-.11-10.27-3.08-18.35-8.91-24.24-5.83-5.89-13.66-8.83-23.48-8.83Z"/>
      <path d="M812.16,1119.81c-10.97,0-20.37,4.09-28.21,12.26s-11.76,17.99-11.76,29.42,3.89,21.39,11.68,29.51c7.78,8.12,17.23,12.18,28.34,12.18s20.4-4.09,28.21-12.27c7.81-8.17,11.72-17.98,11.72-29.43s-3.92-21.25-11.76-29.42-17.25-12.26-28.21-12.26ZM831.45,1182.38c-5.19,5.83-11.62,8.75-19.3,8.75s-14.11-2.92-19.3-8.75c-5.19-5.83-7.78-12.81-7.78-20.93s2.6-15.08,7.78-20.89c5.19-5.8,11.62-8.71,19.3-8.71s14.11,2.9,19.3,8.71c5.19,5.8,7.79,12.77,7.79,20.89s-2.6,15.1-7.79,20.93Z"/>
      <path d="M905.61,1120.14c-12.56,0-21.82,4.63-27.79,13.89v-11.97h-12.89v127.93l12.89-.3v-60.07c6.08,9.27,15.35,13.9,27.79,13.9,10.49,0,19.48-4.09,26.96-12.27,7.48-8.17,11.22-17.98,11.22-29.43s-3.74-21.39-11.22-29.51c-7.48-8.12-16.47-12.18-26.96-12.18ZM924.11,1182.8c-4.58,5.78-10.74,8.66-18.5,8.66s-14.47-2.51-19.8-7.54c-5.33-5.02-8-12.39-8-22.1s2.67-17.22,8-22.18c5.33-4.97,11.93-7.45,19.8-7.45s13.92,2.89,18.5,8.66c4.58,5.78,6.86,12.77,6.86,20.97s-2.29,15.19-6.86,20.97Z"/>
      <path d="M975.83,1090.27c-3.61.21-8.47.44-12.89.55v31.25h-12.3v11.97h12.3v67.24h12.89v-67.24h22.27v-11.97h-22.27v-31.8Z"/>
      <path d="M1012.15,1084.65c-2.62,0-4.91,1-6.86,3.01-1.95,2.01-2.93,4.33-2.93,6.95s.98,4.88,2.93,6.78c1.95,1.9,4.24,2.84,6.86,2.84s4.94-.95,6.95-2.84,3.01-4.16,3.01-6.78-1-4.94-3.01-6.95-4.33-3.01-6.95-3.01Z"/>
      <rect x="1005.29" y="1122.07" width="12.89" height="79.19"/>
      <path d="M1092.88,1127.97c-5.83-5.89-13.66-8.83-23.48-8.83s-17.36,3.1-22.94,9.29v-6.36h-12.89v79.19h12.89v-47.3c.22-6.87,2.39-12.39,6.49-16.58,4.1-4.18,9.58-6.28,16.45-6.28,5.8.22,10.5,2.34,14.11,6.36,3.6,4.02,5.4,9.29,5.4,15.82v47.97h12.89v-49.06c-.11-10.27-3.08-18.35-8.92-24.24Z"/>
    </g>
  </g>
  <g id="Layer_2">
    <path d="M970.2,1006.46c-100.15,20.18-191.26-47.78-214.8-67.18-2.76-2.26-4.58-3.87-5.39-4.6-.97.87-3.5,3.09-7.42,6.26-26.34,21.28-115.29,85.18-212.79,65.52,0,0,43.32-68.6,82.58-97.02,0,0-149.81.9-249.09-86.94,0,0,86.66-39.86,219.28-25.28,0,0-162.45-131.93-178.71-301.15,0,0,191.92,40.62,276.17,181.98-.74-3-52.67-212.07,71.09-428.05,87.97,140.15,94.1,354.37,94.1,354.37,53.38-42.79,121.45-70.1,173.37-86.25,42.47-13.24,74.16-19,78.21-19.73.09-.02.16-.04.25-.04.12-.02.19-.04.19-.04-32.49,169.68-196.97,295.3-196.97,295.3,134.17-15.64,236.46,28.88,236.46,28.88-99.28,87.84-249.09,86.94-249.09,86.94,39.26,28.42,82.58,97.02,82.58,97.02Z" fill="url(#linear-gradient)"/>
  </g>
  <g id="Layer_3">
    <path d="M1097.04,498.35c-7.94,1.82-250.46,60.02-341.64,440.92-2.76-2.26-4.58-3.87-5.39-4.6-.97.87-3.5,3.09-7.42,6.26l-155.01-180.43,71.6-51.13,69.18,78.21s100.39-199.98,290.22-269.47c24.57-9.01,50.66-15.82,78.21-19.73.09-.02.16-.04.25-.04Z" fill="#fff"/>
  </g>
</svg>